<?xml version="1.0" encoding="utf-8"?>
<!-- Generator: Adobe Illustrator 22.1.0, SVG Export Plug-In . SVG Version: 6.00 Build 0)  -->
<svg version="1.1" id="Layer_1" xmlns="http://www.w3.org/2000/svg" xmlns:xlink="http://www.w3.org/1999/xlink" x="0px" y="0px"
	 viewBox="0 0 16 16" style="enable-background:new 0 0 16 16;" xml:space="preserve">
<polygon points="1.9,15.2 1.9,14 14.2,14 14.2,15.2 1.9,15.2 "/>
<polygon points="1.9,12.4 14.2,12.4 14.2,13.6 1.9,13.6 1.9,12.4 "/>
<polygon points="2.3,12 3.4,10.7 7.9,10.7 6.8,12 2.3,12 "/>
<polygon points="3.8,10.3 4.9,9.1 9.4,9.1 8.3,10.3 3.8,10.3 "/>
<polygon points="5.3,8.7 6.4,7.4 10.9,7.4 9.8,8.7 5.3,8.7 "/>
<polygon points="13.9,4.2 12.8,5.4 8.3,5.4 9.4,4.2 13.9,4.2 "/>
<polygon points="6.8,7 7.9,5.8 12.4,5.8 11.3,7 6.8,7 "/>
<polygon points="1.9,2.5 14.2,2.5 14.2,3.8 1.9,3.8 1.9,2.5 "/>
<polygon points="1.9,0.9 14.2,0.9 14.2,2.1 1.9,2.1 1.9,0.9 "/>
<path d="M2.1,15.1c0-0.2,0-0.7,0-0.9c0.3,0,11.7,0,12,0c0,0.2,0,0.7,0,0.9C13.8,15.1,2.4,15.1,2.1,15.1"/>
<path d="M2.1,13.4c0-0.2,0-0.7,0-0.9c0.3,0,11.7,0,12,0c0,0.2,0,0.7,0,0.9C13.8,13.4,2.4,13.4,2.1,13.4"/>
<path d="M2.7,11.8c0.3-0.3,0.8-0.9,0.8-0.9c0.1,0,3.5,0,4.1,0c-0.3,0.3-0.8,0.9-0.8,0.9C6.6,11.8,3.2,11.8,2.7,11.8"/>
<path d="M4.1,10.2C4.4,9.9,4.9,9.3,5,9.2c0.1,0,3.5,0,4.1,0c-0.3,0.3-0.8,0.9-0.8,0.9C8.1,10.2,4.7,10.2,4.1,10.2"/>
<path d="M5.6,8.5c0.3-0.3,0.8-0.9,0.8-0.9c0.1,0,3.5,0,4.1,0c-0.3,0.3-0.8,0.9-0.8,0.9C9.6,8.5,6.2,8.5,5.6,8.5"/>
<path d="M7.1,6.9C7.4,6.6,7.9,6,8,6c0.1,0,3.5,0,4.1,0c-0.3,0.3-0.8,0.9-0.9,0.9C11.1,6.9,7.7,6.9,7.1,6.9"/>
<path d="M8.6,5.2c0.3-0.3,0.8-0.9,0.8-0.9c0.1,0,3.5,0,4.1,0c-0.3,0.3-0.8,0.9-0.8,0.9C12.6,5.2,9.2,5.2,8.6,5.2"/>
<path d="M2.1,3.6c0-0.2,0-0.7,0-0.9c0.3,0,11.7,0,12,0c0,0.2,0,0.7,0,0.9C13.8,3.6,2.4,3.6,2.1,3.6"/>
<path d="M2.1,2c0-0.2,0-0.7,0-0.9c0.3,0,11.7,0,12,0c0,0.2,0,0.7,0,0.9C13.8,2,2.4,2,2.1,2"/>
</svg>
