
<svg version="1.1"
	 xmlns="http://www.w3.org/2000/svg" xmlns:xlink="http://www.w3.org/1999/xlink" xmlns:a="http://ns.adobe.com/AdobeSVGViewerExtensions/3.0/"
	 x="0px" y="0px" width="360px" height="180.7px" viewBox="0 0 360 180.7" style="enable-background:new 0 0 360 180.7;"
	 xml:space="preserve">
<style type="text/css">
	.st0{fill-rule:evenodd;clip-rule:evenodd;fill:none;}
	.st1{fill:none;}
</style>
<defs>
</defs>
<polygon class="st0" points="0,65.2 360,65.2 360,71.2 0,71.2 0,65.2 "/>
<polygon class="st1" points="360,71.2 0,71.2 0,65.2 360,65.2 360,71.2 360,71.2 "/>
<path class="st1" d="M25,6.1v43.2h-6.6V6.1H2.6V0.5h38.1v5.5H25L25,6.1z M79.6,49.3V27.1H53.4v22.2h-6.6V0.5h6.6v21.7h26.2V0.5h6.6
	v48.7H79.6L79.6,49.3z M127.2,43.9v5.4h-30V0.5h30v5.4h-23.4v16.2h18.9v5.2h-18.9v16.6H127.2L127.2,43.9z M192.8,49.3V13.5
	c0-0.5,0-1,0-1.5c0-0.5,0.1-1.1,0.1-1.7l-16.7,30.5c-0.6,1-1.4,1.5-2.4,1.5h-1c-1,0-1.8-0.5-2.4-1.5l-17.1-30.6
	c0.1,0.6,0.1,1.2,0.2,1.7c0,0.6,0.1,1.1,0.1,1.6v35.8h-5.8V0.5h4.9c0.6,0,1,0.1,1.4,0.2c0.3,0.1,0.6,0.4,0.9,1l16.8,30
	c0.3,0.5,0.6,1.1,0.8,1.7c0.2,0.6,0.5,1.2,0.7,1.8c0.2-0.6,0.5-1.2,0.7-1.8c0.2-0.6,0.5-1.2,0.9-1.8l16.5-30c0.3-0.5,0.6-0.8,0.9-1
	c0.3-0.1,0.8-0.2,1.4-0.2h4.9v48.7H192.8L192.8,49.3z M253,35c-1.2,3-2.8,5.7-4.9,7.9c-2.1,2.2-4.6,3.9-7.6,5.1
	c-3,1.2-6.2,1.8-9.8,1.8c-3.6,0-6.8-0.6-9.8-1.8c-2.9-1.2-5.5-2.9-7.6-5.1c-2.1-2.2-3.7-4.8-4.9-7.9c-1.2-3-1.7-6.4-1.7-10
	c0-3.6,0.6-7,1.7-10c1.2-3,2.8-5.7,4.9-7.9c2.1-2.2,4.6-3.9,7.6-5.2c2.9-1.2,6.2-1.8,9.8-1.8c3.6,0,6.9,0.6,9.8,1.8s5.5,2.9,7.6,5.2
	c2.1,2.2,3.7,4.8,4.9,7.9c1.2,3,1.7,6.4,1.7,10C254.8,28.6,254.2,31.9,253,35L253,35z M246.8,16.9c-0.8-2.4-2-4.4-3.5-6
	c-1.5-1.6-3.3-2.9-5.4-3.8c-2.1-0.9-4.5-1.3-7.1-1.3c-2.6,0-5,0.4-7.1,1.3c-2.1,0.9-3.9,2.1-5.5,3.8c-1.5,1.6-2.7,3.7-3.5,6
	c-0.8,2.4-1.2,5.1-1.2,8.1c0,3,0.4,5.7,1.2,8c0.8,2.4,2,4.4,3.5,6c1.5,1.6,3.3,2.9,5.5,3.8c2.1,0.9,4.5,1.3,7.1,1.3
	c2.6,0,5-0.4,7.1-1.3c2.1-0.9,3.9-2.1,5.4-3.8c1.5-1.6,2.7-3.6,3.5-6c0.8-2.4,1.2-5,1.2-8C248,21.9,247.6,19.2,246.8,16.9
	L246.8,16.9z M281.2,49.3h-5.9L255.4,0.5h5.3c0.6,0,1.1,0.1,1.4,0.4c0.4,0.3,0.6,0.7,0.8,1.1l13.8,34.4c0.3,0.8,0.6,1.6,0.9,2.5
	c0.3,0.9,0.5,1.8,0.8,2.8c0.2-1,0.4-1.9,0.7-2.8c0.2-0.9,0.5-1.7,0.8-2.5l13.7-34.4c0.2-0.4,0.4-0.7,0.8-1.1
	c0.4-0.3,0.9-0.5,1.4-0.5h5.3L281.2,49.3L281.2,49.3z M307.6,49.3V0.5h6.6v48.7H307.6L307.6,49.3z M356.3,43.9v5.4h-30V0.5h30v5.4
	h-23.4v16.2h18.9v5.2h-18.9v16.6H356.3L356.3,43.9z"/>
<path class="st1" d="M1.6,180.7v-8.1h81v8.1H1.6L1.6,180.7z M1.6,161.7h81v8.1h-81V161.7L1.6,161.7z M4,159l7.3-8.1H41l-7.3,8.1H4
	L4,159z M13.7,148.2l7.4-8.1h29.7l-7.4,8.1H13.7L13.7,148.2z M23.6,137.4l7.3-8.1h29.7l-7.3,8.1H23.6L23.6,137.4z M80.2,107.8
	l-7.3,8.1H43.2l7.3-8.1H80.2L80.2,107.8z M33.3,126.6l7.4-8.1h29.7l-7.4,8.1H33.3L33.3,126.6z M1.6,97h81v8.1h-81V97L1.6,97z
	 M1.6,86.2h81v8.1h-81V86.2L1.6,86.2z M176.4,168.5c0,0.2,0,0.4-0.1,0.6c0,0.2-0.1,0.5-0.1,0.7H95.8c0-0.3,0-0.5-0.1-0.7
	c0-0.2-0.1-0.4-0.1-0.6c-0.1-0.3-0.1-0.7-0.1-1.4v-5.4h81v5.4C176.5,167.8,176.5,168.2,176.4,168.5L176.4,168.5z M156.3,150.9h20.3
	v8.1h-20.3V150.9L156.3,150.9z M156.3,140.1h20.3v8.1h-20.3V140.1L156.3,140.1z M156.3,129.3h20.3v8.1h-20.3V129.3L156.3,129.3z
	 M156.3,118.6h20.3v8.1h-20.3V118.6L156.3,118.6z M156.3,107.8h20.3v8.1h-20.3V107.8L156.3,107.8z M95.5,99.7c0-0.6,0-1.1,0.1-1.4
	c0-0.2,0-0.4,0.1-0.6c0-0.2,0.1-0.5,0.1-0.7h80.5c0,0.3,0,0.5,0.1,0.7c0,0.2,0.1,0.4,0.1,0.6c0.1,0.3,0.1,0.7,0.1,1.4v5.4h-81V99.7
	L95.5,99.7z M109,86.2h54c5.9,0,10.1,2.7,12.4,8.1H96.6C98.9,88.9,103,86.2,109,86.2L109,86.2z M115.8,115.9H95.5v-8.1h20.3V115.9
	L115.8,115.9z M115.8,126.6H95.5v-8.1h20.3V126.6L115.8,126.6z M115.8,137.4H95.5v-8.1h20.3V137.4L115.8,137.4z M115.8,148.2H95.5
	v-8.1h20.3V148.2L115.8,148.2z M115.8,159H95.5v-8.1h20.3V159L115.8,159z M163,180.7h-54c-6,0-10.2-2.7-12.4-8.1h78.8
	C173.1,178,169,180.7,163,180.7L163,180.7z M251.5,180.7l-5.8-8.1h26.1v8.1H251.5L251.5,180.7z M238,161.7h33.7v8.1h-27.9L238,161.7
	L238,161.7z M230.3,150.9h41.4v8.1h-35.6L230.3,150.9L230.3,150.9z M222.6,140.1h27l1.9,2.7v-2.7h20.2v8.1h-43.3L222.6,140.1
	L222.6,140.1z M251.5,129.3h20.2v8.1h-20.2V129.3L251.5,129.3z M251.5,118.6h20.2v8.1h-20.2V118.6L251.5,118.6z M251.5,107.8h20.2
	v8.1h-20.2V107.8L251.5,107.8z M251.5,97h20.2v8.1h-20.2V97L251.5,97z M251.5,86.2h20.2v8.1h-20.2V86.2L251.5,86.2z M214.9,129.3h27
	l5.7,8.1h-27L214.9,129.3L214.9,129.3z M211,123.9v2.7h-20.2v-8.1h43.3l5.8,8.1h-27L211,123.9L211,123.9z M190.7,107.8h35.6l5.8,8.1
	h-41.4V107.8L190.7,107.8z M190.7,97h27.9l5.8,8.1h-33.7V97L190.7,97z M190.7,86.2H211l5.8,8.1h-26.1V86.2L190.7,86.2z M211,137.4
	h-20.2v-8.1H211V137.4L211,137.4z M211,148.2h-20.2v-8.1H211V148.2L211,148.2z M211,159h-20.2v-8.1H211V159L211,159z M211,169.8
	h-20.2v-8.1H211V169.8L211,169.8z M211,180.7h-20.2v-8.1H211V180.7L211,180.7z M299.3,180.7c-6,0-10.2-2.7-12.4-8.1H360v8.1H299.3
	L299.3,180.7z M286,169.1c0-0.2-0.1-0.4-0.1-0.6c-0.1-0.3-0.1-0.7-0.1-1.4v-5.4H360v8.1h-74C286,169.6,286,169.3,286,169.1
	L286,169.1z M285.8,129.3H360v8.1h-74.2V129.3L285.8,129.3z M285.8,118.6H360v8.1h-74.2V118.6L285.8,118.6z M285.8,99.7
	c0-0.6,0-1.1,0.1-1.4c0-0.2,0-0.4,0.1-0.6c0-0.2,0.1-0.5,0.1-0.7h74v8.1h-74.2V99.7L285.8,99.7z M299.3,86.2H360v8.1h-73.2
	C289.1,88.9,293.2,86.2,299.3,86.2L299.3,86.2z M306,115.9h-20.3v-8.1H306V115.9L306,115.9z M306,148.2h-20.3v-8.1H306V148.2
	L306,148.2z M306,159h-20.3v-8.1H306V159L306,159z"/>
<path class="st1" d="M299.3,179.7c-5.1,0-8.7-2-10.8-6.1c3,0,68.7,0,70.6,0c0,1.3,0,4.8,0,6.1C357.1,179.7,299.3,179.7,299.3,179.7
	 M252,179.7c-0.4-0.6-3-4.2-4.4-6.1c3.2,0,21.4,0,23.1,0c0,1.3,0,4.8,0,6.1C269,179.7,252.9,179.7,252,179.7 M191.7,179.7
	c0-1.3,0-4.8,0-6.1c1.7,0,16.5,0,18.3,0c0,1.3,0,4.8,0,6.1C208.3,179.7,193.4,179.7,191.7,179.7 M109,179.7c-5.1,0-8.7-2-10.8-6.1
	c3,0,72.7,0,75.7,0c-2.3,4.1-5.8,6.1-10.8,6.1H109 M2.6,179.7c0-1.3,0-4.8,0-6.1c1.9,0,77.1,0,79,0c0,1.3,0,4.8,0,6.1
	C79.7,179.7,4.5,179.7,2.6,179.7 M286.9,168.8c0-0.1,0-0.2,0-0.3c0-0.1,0-0.2-0.1-0.3c0,0-0.1-0.3-0.1-1c0,0,0-3.1,0-4.4
	c1.9,0,70.3,0,72.3,0c0,1.3,0,4.8,0,6.1C357.1,168.8,288.7,168.8,286.9,168.8 M244.3,168.8c-0.4-0.6-3-4.2-4.4-6.1
	c3.3,0,29,0,30.8,0c0,1.3,0,4.8,0,6.1C268.9,168.8,245.2,168.8,244.3,168.8 M191.7,168.8c0-1.3,0-4.8,0-6.1c1.7,0,16.5,0,18.3,0
	c0,1.3,0,4.8,0,6.1C208.3,168.8,193.4,168.8,191.7,168.8 M96.7,168.8c0-0.1,0-0.2,0-0.3c0-0.1,0-0.2,0-0.3c0,0-0.1-0.3-0.1-1
	c0,0,0-3.1,0-4.4c1.9,0,77.1,0,79,0c0,1.3,0,4.4,0,4.4c0,0.7-0.1,1-0.1,1c0,0.1,0,0.2,0,0.3c0,0.1,0,0.2,0,0.3
	C173.6,168.8,98.5,168.8,96.7,168.8 M2.6,168.8c0-1.3,0-4.8,0-6.1c1.9,0,77.1,0,79,0c0,1.3,0,4.8,0,6.1
	C79.7,168.8,4.5,168.8,2.6,168.8 M286.8,158.1c0-1.3,0-4.8,0-6.1c1.7,0,16.5,0,18.3,0c0,1.3,0,4.8,0,6.1
	C303.3,158.1,288.5,158.1,286.8,158.1 M236.6,158.1c-0.4-0.6-3-4.2-4.4-6.1c3.4,0,36.7,0,38.5,0c0,1.3,0,4.8,0,6.1
	C268.9,158.1,237.6,158.1,236.6,158.1 M191.7,158.1c0-1.3,0-4.8,0-6.1c1.7,0,16.5,0,18.3,0c0,1.3,0,4.8,0,6.1
	C208.3,158.1,193.4,158.1,191.7,158.1 M157.3,158.1c0-1.3,0-4.8,0-6.1c1.7,0,16.5,0,18.3,0c0,1.3,0,4.8,0,6.1
	C173.8,158.1,159,158.1,157.3,158.1 M96.5,158.1c0-1.3,0-4.8,0-6.1c1.7,0,16.5,0,18.3,0c0,1.3,0,4.8,0,6.1
	C113.1,158.1,98.3,158.1,96.5,158.1 M6.3,158.1c1.8-2,5.1-5.6,5.5-6.1c0.8,0,23.2,0,27,0c-1.8,2-5.1,5.6-5.5,6.1
	C32.5,158.1,10,158.1,6.3,158.1 M286.8,147.3c0-1.3,0-4.8,0-6.1c1.7,0,16.5,0,18.3,0c0,1.3,0,4.8,0,6.1
	C303.3,147.3,288.5,147.3,286.8,147.3 M228.9,147.3c-0.4-0.6-3-4.2-4.4-6.1c3.3,0,23.6,0,24.5,0c0.4,0.6,1.6,2.3,1.6,2.3
	c0.2,0.3,0.5,0.4,0.8,0.4c0.1,0,0.2,0,0.3,0c0.4-0.1,0.7-0.5,0.7-1c0,0,0-0.9,0-1.7c1.7,0,16.5,0,18.3,0c0,1.3,0,4.8,0,6.1
	C268.8,147.3,229.9,147.3,228.9,147.3 M191.7,147.3c0-1.3,0-4.8,0-6.1c1.7,0,16.5,0,18.3,0c0,1.3,0,4.8,0,6.1
	C208.3,147.3,193.4,147.3,191.7,147.3 M157.3,147.3c0-1.3,0-4.8,0-6.1c1.7,0,16.5,0,18.3,0c0,1.3,0,4.8,0,6.1
	C173.8,147.3,159,147.3,157.3,147.3 M96.5,147.3c0-1.3,0-4.8,0-6.1c1.7,0,16.5,0,18.3,0c0,1.3,0,4.8,0,6.1
	C113.1,147.3,98.3,147.3,96.5,147.3 M16,147.3c1.8-2,5.2-5.6,5.6-6.1c0.8,0,23.2,0,27,0c-1.8,2-5.2,5.6-5.6,6.1
	C42.2,147.3,19.8,147.3,16,147.3 M286.8,136.5c0-1.3,0-4.8,0-6.1c1.9,0,70.3,0,72.3,0c0,1.3,0,4.8,0,6.1
	C357.1,136.5,288.7,136.5,286.8,136.5 M252.5,136.5c0-1.3,0-4.8,0-6.1c1.7,0,16.5,0,18.3,0c0,1.3,0,4.8,0,6.1
	C269,136.5,254.2,136.5,252.5,136.5 M221.1,136.5c-0.4-0.6-2.9-4.2-4.3-6.1c3.2,0,23.6,0,24.6,0c0.4,0.6,2.9,4.2,4.3,6.1
	C242.4,136.5,222,136.5,221.1,136.5 M191.7,136.5c0-1.3,0-4.8,0-6.1c1.7,0,16.5,0,18.3,0c0,1.3,0,4.8,0,6.1
	C208.3,136.5,193.4,136.5,191.7,136.5 M157.3,136.5c0-1.3,0-4.8,0-6.1c1.7,0,16.5,0,18.3,0c0,1.3,0,4.8,0,6.1
	C173.8,136.5,159,136.5,157.3,136.5 M96.5,136.5c0-1.3,0-4.8,0-6.1c1.7,0,16.5,0,18.3,0c0,1.3,0,4.8,0,6.1
	C113.1,136.5,98.3,136.5,96.5,136.5 M25.8,136.5c1.8-2,5.1-5.6,5.5-6.1c0.8,0,23.2,0,27,0c-1.8,2-5.1,5.6-5.5,6.1
	C52,136.5,29.6,136.5,25.8,136.5 M286.8,125.7c0-1.3,0-4.8,0-6.1c1.9,0,70.3,0,72.3,0c0,1.3,0,4.8,0,6.1
	C357.1,125.7,288.7,125.7,286.8,125.7 M252.5,125.7c0-1.3,0-4.8,0-6.1c1.7,0,16.5,0,18.3,0c0,1.3,0,4.8,0,6.1
	C269,125.7,254.2,125.7,252.5,125.7 M213.4,125.7c-0.4-0.6-1.6-2.3-1.6-2.3c-0.2-0.3-0.5-0.4-0.8-0.4c-0.1,0-0.2,0-0.3,0
	c-0.4,0.1-0.7,0.5-0.7,1c0,0,0,0.9,0,1.7c-1.7,0-16.5,0-18.3,0c0-1.3,0-4.8,0-6.1c1.9,0,40.8,0,41.8,0c0.4,0.6,3,4.2,4.4,6.1
	C234.6,125.7,214.3,125.7,213.4,125.7 M157.3,125.7c0-1.3,0-4.8,0-6.1c1.7,0,16.5,0,18.3,0c0,1.3,0,4.8,0,6.1
	C173.8,125.7,159,125.7,157.3,125.7 M96.5,125.7c0-1.3,0-4.8,0-6.1c1.7,0,16.5,0,18.3,0c0,1.3,0,4.8,0,6.1
	C113.1,125.7,98.3,125.7,96.5,125.7 M35.6,125.7c1.8-2,5.2-5.6,5.6-6.1c0.8,0,23.2,0,27,0c-1.8,2-5.2,5.6-5.6,6.1
	C61.8,125.7,39.4,125.7,35.6,125.7 M286.8,114.9c0-1.3,0-4.8,0-6.1c1.7,0,16.5,0,18.3,0c0,1.3,0,4.8,0,6.1
	C303.3,114.9,288.5,114.9,286.8,114.9 M252.5,114.9c0-1.3,0-4.8,0-6.1c1.7,0,16.5,0,18.3,0c0,1.3,0,4.8,0,6.1
	C269,114.9,254.2,114.9,252.5,114.9 M191.7,114.9c0-1.3,0-4.8,0-6.1c1.9,0,33.2,0,34.1,0c0.4,0.6,3,4.2,4.4,6.1
	C226.8,114.9,193.5,114.9,191.7,114.9 M157.3,114.9c0-1.3,0-4.8,0-6.1c1.7,0,16.5,0,18.3,0c0,1.3,0,4.8,0,6.1
	C173.8,114.9,159,114.9,157.3,114.9 M96.5,114.9c0-1.3,0-4.8,0-6.1c1.7,0,16.5,0,18.3,0c0,1.3,0,4.8,0,6.1
	C113.1,114.9,98.3,114.9,96.5,114.9 M45.4,114.9c1.8-2,5.1-5.6,5.5-6.1c0.8,0,23.2,0,27,0c-1.8,2-5.1,5.6-5.5,6.1
	C71.6,114.9,49.2,114.9,45.4,114.9 M286.8,104.1c0-1.3,0-4.4,0-4.4c0-0.7,0.1-1,0.1-1c0-0.1,0.1-0.2,0.1-0.3c0-0.1,0-0.2,0-0.3
	c1.7,0,70.2,0,72.1,0c0,1.3,0,4.8,0,6.1C357.1,104.1,288.7,104.1,286.8,104.1 M252.5,104.1c0-1.3,0-4.8,0-6.1c1.7,0,16.5,0,18.3,0
	c0,1.3,0,4.8,0,6.1C269,104.1,254.2,104.1,252.5,104.1 M191.7,104.1c0-1.3,0-4.8,0-6.1c1.8,0,25.5,0,26.4,0c0.4,0.6,3,4.2,4.4,6.1
	C219.2,104.1,193.5,104.1,191.7,104.1 M96.5,104.1c0-1.3,0-4.4,0-4.4c0-0.7,0.1-1,0.1-1c0-0.1,0-0.2,0-0.3c0-0.1,0-0.2,0-0.3
	c1.7,0,76.9,0,78.7,0c0,0.2,0,0.3,0,0.3c0,0.1,0,0.2,0,0.3c0,0,0.1,0.3,0.1,1c0,0,0,3.1,0,4.4C173.6,104.1,98.5,104.1,96.5,104.1
	 M2.6,104.1c0-1.3,0-4.8,0-6.1c1.9,0,77.1,0,79,0c0,1.3,0,4.8,0,6.1C79.7,104.1,4.5,104.1,2.6,104.1 M288.4,93.3
	c2.2-4.1,5.8-6.1,10.8-6.1c0,0,57.8,0,59.8,0c0,1.3,0,4.8,0,6.1C357.1,93.3,291.4,93.3,288.4,93.3 M252.5,93.3c0-1.3,0-4.8,0-6.1
	c1.7,0,16.5,0,18.3,0c0,1.3,0,4.8,0,6.1C269,93.3,254.2,93.3,252.5,93.3 M191.7,93.3c0-1.3,0-4.8,0-6.1c1.8,0,17.8,0,18.7,0
	c0.4,0.6,3,4.2,4.4,6.1C211.6,93.3,193.4,93.3,191.7,93.3 M98.2,93.3c2.2-4.1,5.7-6.1,10.8-6.1h54c5,0,8.6,2,10.8,6.1
	C170.9,93.3,101.2,93.3,98.2,93.3 M2.6,93.3c0-1.3,0-4.8,0-6.1c1.9,0,77.1,0,79,0c0,1.3,0,4.8,0,6.1C79.7,93.3,4.5,93.3,2.6,93.3"/>
</svg>
